<mxfile host="65bd71144e">
    <diagram name="PÃ¡gina-1" id="4fepIdYCEeFSJat0yLkn">
        <mxGraphModel dx="1523" dy="673" grid="1" gridSize="10" guides="1" tooltips="1" connect="1" arrows="1" fold="1" page="1" pageScale="1" pageWidth="827" pageHeight="1169" math="0" shadow="0">
            <root>
                <mxCell id="0"/>
                <mxCell id="1" parent="0"/>
                <mxCell id="wMbG_U5TibeuyCvaz2eE-1" value="Program" style="text;html=1;strokeColor=none;fillColor=none;align=center;verticalAlign=middle;whiteSpace=wrap;rounded=0;fontStyle=1;labelBackgroundColor=none;fontColor=#000000;fontFamily=Sora;fontSource=https%3A%2F%2Ffonts.googleapis.com%2Fcss%3Ffamily%3DSora;fontSize=24;" parent="1" vertex="1">
                    <mxGeometry x="60" y="70" width="100" height="30" as="geometry"/>
                </mxCell>
                <mxCell id="wMbG_U5TibeuyCvaz2eE-2" value="Statement" style="text;html=1;strokeColor=none;fillColor=none;align=center;verticalAlign=middle;whiteSpace=wrap;rounded=0;fontStyle=1;labelBackgroundColor=none;fontColor=#000000;fontFamily=Sora;fontSource=https%3A%2F%2Ffonts.googleapis.com%2Fcss%3Ffamily%3DSora;fontSize=24;" parent="1" vertex="1">
                    <mxGeometry x="1650" y="146" width="140" height="30" as="geometry"/>
                </mxCell>
                <mxCell id="wMbG_U5TibeuyCvaz2eE-4" value="Expression" style="text;html=1;strokeColor=none;fillColor=none;align=center;verticalAlign=middle;whiteSpace=wrap;rounded=0;fontStyle=1;labelBackgroundColor=none;fontColor=#000000;fontFamily=Sora;fontSource=https%3A%2F%2Ffonts.googleapis.com%2Fcss%3Ffamily%3DSora;fontSize=24;" parent="1" vertex="1">
                    <mxGeometry x="80" y="376" width="140" height="30" as="geometry"/>
                </mxCell>
                <mxCell id="wMbG_U5TibeuyCvaz2eE-5" value="Term" style="text;html=1;strokeColor=none;fillColor=none;align=center;verticalAlign=middle;whiteSpace=wrap;rounded=0;fontStyle=1;labelBackgroundColor=none;fontColor=#000000;fontFamily=Sora;fontSource=https%3A%2F%2Ffonts.googleapis.com%2Fcss%3Ffamily%3DSora;fontSize=24;" parent="1" vertex="1">
                    <mxGeometry x="580" y="376" width="140" height="30" as="geometry"/>
                </mxCell>
                <mxCell id="wMbG_U5TibeuyCvaz2eE-6" value="Factor" style="text;html=1;strokeColor=none;fillColor=none;align=center;verticalAlign=middle;whiteSpace=wrap;rounded=0;fontStyle=1;labelBackgroundColor=none;fontColor=#000000;fontFamily=Sora;fontSource=https%3A%2F%2Ffonts.googleapis.com%2Fcss%3Ffamily%3DSora;fontSize=24;" parent="1" vertex="1">
                    <mxGeometry x="3870" y="176" width="140" height="30" as="geometry"/>
                </mxCell>
                <mxCell id="wMbG_U5TibeuyCvaz2eE-7" value="&lt;b&gt;Statement&lt;/b&gt;" style="rounded=0;whiteSpace=wrap;html=1;fontSize=24;fontFamily=Sora;fontSource=https%3A%2F%2Ffonts.googleapis.com%2Fcss%3Ffamily%3DSora;" parent="1" vertex="1">
                    <mxGeometry x="170" y="160" width="150" height="60" as="geometry"/>
                </mxCell>
                <mxCell id="wMbG_U5TibeuyCvaz2eE-8" value="" style="endArrow=classic;html=1;rounded=0;fontSize=24;fontStyle=0" parent="1" edge="1">
                    <mxGeometry width="50" height="50" relative="1" as="geometry">
                        <mxPoint x="80" y="120" as="sourcePoint"/>
                        <mxPoint x="400" y="120" as="targetPoint"/>
                    </mxGeometry>
                </mxCell>
                <mxCell id="wMbG_U5TibeuyCvaz2eE-9" value="" style="endArrow=classic;html=1;rounded=0;fontSize=24;fontStyle=0;entryX=1;entryY=0.5;entryDx=0;entryDy=0;" parent="1" target="wMbG_U5TibeuyCvaz2eE-7" edge="1">
                    <mxGeometry width="50" height="50" relative="1" as="geometry">
                        <mxPoint x="360" y="120" as="sourcePoint"/>
                        <mxPoint x="410" y="130" as="targetPoint"/>
                        <Array as="points">
                            <mxPoint x="360" y="190"/>
                        </Array>
                    </mxGeometry>
                </mxCell>
                <mxCell id="wMbG_U5TibeuyCvaz2eE-10" value="" style="endArrow=classic;html=1;rounded=0;fontSize=24;fontStyle=0;exitX=0;exitY=0.5;exitDx=0;exitDy=0;" parent="1" source="wMbG_U5TibeuyCvaz2eE-7" edge="1">
                    <mxGeometry width="50" height="50" relative="1" as="geometry">
                        <mxPoint x="130" y="150" as="sourcePoint"/>
                        <mxPoint x="120" y="120" as="targetPoint"/>
                        <Array as="points">
                            <mxPoint x="120" y="190"/>
                        </Array>
                    </mxGeometry>
                </mxCell>
                <mxCell id="wMbG_U5TibeuyCvaz2eE-12" value="" style="endArrow=classic;html=1;rounded=0;fontSize=24;fontStyle=0;entryX=0;entryY=0.5;entryDx=0;entryDy=0;" parent="1" target="wMbG_U5TibeuyCvaz2eE-20" edge="1">
                    <mxGeometry width="50" height="50" relative="1" as="geometry">
                        <mxPoint x="1650" y="200" as="sourcePoint"/>
                        <mxPoint x="2440" y="196" as="targetPoint"/>
                    </mxGeometry>
                </mxCell>
                <mxCell id="wMbG_U5TibeuyCvaz2eE-20" value="\n" style="ellipse;whiteSpace=wrap;html=1;fontSize=24;fontStyle=1" parent="1" vertex="1">
                    <mxGeometry x="3400" y="160" width="80" height="80" as="geometry"/>
                </mxCell>
                <mxCell id="wMbG_U5TibeuyCvaz2eE-21" value="" style="endArrow=classic;html=1;rounded=0;fontSize=24;fontStyle=0;exitX=1;exitY=0.5;exitDx=0;exitDy=0;" parent="1" source="wMbG_U5TibeuyCvaz2eE-20" edge="1">
                    <mxGeometry width="50" height="50" relative="1" as="geometry">
                        <mxPoint x="3080" y="216" as="sourcePoint"/>
                        <mxPoint x="3640" y="200" as="targetPoint"/>
                    </mxGeometry>
                </mxCell>
                <mxCell id="wMbG_U5TibeuyCvaz2eE-22" value="Boolean &lt;b&gt;Expression&lt;/b&gt;" style="rounded=0;whiteSpace=wrap;html=1;fontSize=24;fontFamily=Sora;fontSource=https%3A%2F%2Ffonts.googleapis.com%2Fcss%3Ffamily%3DSora;" parent="1" vertex="1">
                    <mxGeometry x="2120" y="256" width="150" height="60" as="geometry"/>
                </mxCell>
                <mxCell id="wMbG_U5TibeuyCvaz2eE-23" value="" style="endArrow=classic;html=1;rounded=0;fontSize=24;fontStyle=0;entryX=0;entryY=0.5;entryDx=0;entryDy=0;" parent="1" target="wMbG_U5TibeuyCvaz2eE-24" edge="1">
                    <mxGeometry width="50" height="50" relative="1" as="geometry">
                        <mxPoint x="1690" y="200" as="sourcePoint"/>
                        <mxPoint x="1740" y="286" as="targetPoint"/>
                        <Array as="points">
                            <mxPoint x="1690" y="286"/>
                        </Array>
                    </mxGeometry>
                </mxCell>
                <mxCell id="wMbG_U5TibeuyCvaz2eE-24" value="Println" style="ellipse;whiteSpace=wrap;html=1;fontSize=24;fontStyle=1" parent="1" vertex="1">
                    <mxGeometry x="1740" y="246" width="140" height="80" as="geometry"/>
                </mxCell>
                <mxCell id="wMbG_U5TibeuyCvaz2eE-25" value="" style="endArrow=classic;html=1;rounded=0;fontSize=24;fontStyle=0;exitX=1;exitY=0.5;exitDx=0;exitDy=0;" parent="1" source="wMbG_U5TibeuyCvaz2eE-24" edge="1">
                    <mxGeometry width="50" height="50" relative="1" as="geometry">
                        <mxPoint x="1950" y="276" as="sourcePoint"/>
                        <mxPoint x="1950" y="286" as="targetPoint"/>
                        <Array as="points">
                            <mxPoint x="1910" y="286"/>
                        </Array>
                    </mxGeometry>
                </mxCell>
                <mxCell id="wMbG_U5TibeuyCvaz2eE-26" value="(" style="ellipse;whiteSpace=wrap;html=1;fontSize=24;fontStyle=1" parent="1" vertex="1">
                    <mxGeometry x="1950" y="246" width="80" height="80" as="geometry"/>
                </mxCell>
                <mxCell id="wMbG_U5TibeuyCvaz2eE-27" value="" style="endArrow=classic;html=1;rounded=0;fontSize=24;fontStyle=0;entryX=0;entryY=0.5;entryDx=0;entryDy=0;exitX=1;exitY=0.5;exitDx=0;exitDy=0;" parent="1" source="wMbG_U5TibeuyCvaz2eE-26" target="wMbG_U5TibeuyCvaz2eE-22" edge="1">
                    <mxGeometry width="50" height="50" relative="1" as="geometry">
                        <mxPoint x="2080" y="306" as="sourcePoint"/>
                        <mxPoint x="2040" y="376" as="targetPoint"/>
                        <Array as="points"/>
                    </mxGeometry>
                </mxCell>
                <mxCell id="wMbG_U5TibeuyCvaz2eE-28" value="" style="endArrow=classic;html=1;rounded=0;fontSize=24;fontStyle=0;exitX=1;exitY=0.5;exitDx=0;exitDy=0;" parent="1" source="wMbG_U5TibeuyCvaz2eE-30" edge="1">
                    <mxGeometry width="50" height="50" relative="1" as="geometry">
                        <mxPoint x="2440" y="295.9999999999999" as="sourcePoint"/>
                        <mxPoint x="2530" y="200" as="targetPoint"/>
                        <Array as="points">
                            <mxPoint x="2530" y="286"/>
                        </Array>
                    </mxGeometry>
                </mxCell>
                <mxCell id="wMbG_U5TibeuyCvaz2eE-29" value="" style="endArrow=classic;html=1;rounded=0;fontSize=24;fontStyle=0;exitX=1;exitY=0.5;exitDx=0;exitDy=0;" parent="1" edge="1">
                    <mxGeometry width="50" height="50" relative="1" as="geometry">
                        <mxPoint x="2270" y="286" as="sourcePoint"/>
                        <mxPoint x="2340" y="286" as="targetPoint"/>
                        <Array as="points">
                            <mxPoint x="2300" y="286"/>
                        </Array>
                    </mxGeometry>
                </mxCell>
                <mxCell id="wMbG_U5TibeuyCvaz2eE-30" value=")" style="ellipse;whiteSpace=wrap;html=1;fontSize=24;fontStyle=1" parent="1" vertex="1">
                    <mxGeometry x="2340" y="246" width="80" height="80" as="geometry"/>
                </mxCell>
                <mxCell id="wMbG_U5TibeuyCvaz2eE-32" value="&lt;b&gt;Term&lt;/b&gt;" style="rounded=0;whiteSpace=wrap;html=1;fontSize=24;fontFamily=Sora;fontSource=https%3A%2F%2Ffonts.googleapis.com%2Fcss%3Ffamily%3DSora;" parent="1" vertex="1">
                    <mxGeometry x="200" y="436" width="150" height="60" as="geometry"/>
                </mxCell>
                <mxCell id="wMbG_U5TibeuyCvaz2eE-33" value="" style="endArrow=classic;html=1;rounded=0;fontSize=24;fontStyle=0;entryX=0;entryY=0.5;entryDx=0;entryDy=0;" parent="1" target="wMbG_U5TibeuyCvaz2eE-32" edge="1">
                    <mxGeometry width="50" height="50" relative="1" as="geometry">
                        <mxPoint x="80" y="466" as="sourcePoint"/>
                        <mxPoint x="205" y="466" as="targetPoint"/>
                    </mxGeometry>
                </mxCell>
                <mxCell id="wMbG_U5TibeuyCvaz2eE-36" value="" style="endArrow=classic;html=1;rounded=0;fontSize=24;fontStyle=0;entryX=0;entryY=0.5;entryDx=0;entryDy=0;exitX=1;exitY=0.5;exitDx=0;exitDy=0;" parent="1" source="wMbG_U5TibeuyCvaz2eE-32" edge="1">
                    <mxGeometry width="50" height="50" relative="1" as="geometry">
                        <mxPoint x="360" y="465.58000000000004" as="sourcePoint"/>
                        <mxPoint x="480" y="465.58000000000004" as="targetPoint"/>
                    </mxGeometry>
                </mxCell>
                <mxCell id="wMbG_U5TibeuyCvaz2eE-37" value="" style="endArrow=classic;html=1;rounded=0;fontSize=24;fontStyle=0;entryX=1;entryY=0.5;entryDx=0;entryDy=0;" parent="1" target="wMbG_U5TibeuyCvaz2eE-39" edge="1">
                    <mxGeometry width="50" height="50" relative="1" as="geometry">
                        <mxPoint x="400" y="466" as="sourcePoint"/>
                        <mxPoint x="400" y="556" as="targetPoint"/>
                        <Array as="points">
                            <mxPoint x="400" y="556"/>
                        </Array>
                    </mxGeometry>
                </mxCell>
                <mxCell id="wMbG_U5TibeuyCvaz2eE-39" value="+" style="ellipse;whiteSpace=wrap;html=1;fontSize=24;fontStyle=1" parent="1" vertex="1">
                    <mxGeometry x="230" y="516" width="80" height="80" as="geometry"/>
                </mxCell>
                <mxCell id="wMbG_U5TibeuyCvaz2eE-40" value="-" style="ellipse;whiteSpace=wrap;html=1;fontSize=24;fontStyle=1" parent="1" vertex="1">
                    <mxGeometry x="230" y="616" width="80" height="80" as="geometry"/>
                </mxCell>
                <mxCell id="wMbG_U5TibeuyCvaz2eE-41" value="" style="endArrow=classic;html=1;rounded=0;fontSize=24;fontStyle=0;entryX=1;entryY=0.5;entryDx=0;entryDy=0;" parent="1" target="wMbG_U5TibeuyCvaz2eE-40" edge="1">
                    <mxGeometry width="50" height="50" relative="1" as="geometry">
                        <mxPoint x="400" y="466" as="sourcePoint"/>
                        <mxPoint x="320" y="566" as="targetPoint"/>
                        <Array as="points">
                            <mxPoint x="400" y="656"/>
                        </Array>
                    </mxGeometry>
                </mxCell>
                <mxCell id="wMbG_U5TibeuyCvaz2eE-42" value="" style="endArrow=classic;html=1;rounded=0;fontSize=24;fontStyle=0;exitX=0;exitY=0.5;exitDx=0;exitDy=0;" parent="1" source="wMbG_U5TibeuyCvaz2eE-40" edge="1">
                    <mxGeometry width="50" height="50" relative="1" as="geometry">
                        <mxPoint x="170" y="496" as="sourcePoint"/>
                        <mxPoint x="120" y="466" as="targetPoint"/>
                        <Array as="points">
                            <mxPoint x="120" y="656"/>
                        </Array>
                    </mxGeometry>
                </mxCell>
                <mxCell id="wMbG_U5TibeuyCvaz2eE-43" value="" style="endArrow=classic;html=1;rounded=0;fontSize=24;fontStyle=0;exitX=0;exitY=0.5;exitDx=0;exitDy=0;" parent="1" source="wMbG_U5TibeuyCvaz2eE-39" edge="1">
                    <mxGeometry width="50" height="50" relative="1" as="geometry">
                        <mxPoint x="240" y="666" as="sourcePoint"/>
                        <mxPoint x="120" y="466" as="targetPoint"/>
                        <Array as="points">
                            <mxPoint x="120" y="556"/>
                        </Array>
                    </mxGeometry>
                </mxCell>
                <mxCell id="wMbG_U5TibeuyCvaz2eE-45" value="&lt;b&gt;Factor&lt;/b&gt;" style="rounded=0;whiteSpace=wrap;html=1;fontSize=24;fontFamily=Sora;fontSource=https%3A%2F%2Ffonts.googleapis.com%2Fcss%3Ffamily%3DSora;" parent="1" vertex="1">
                    <mxGeometry x="700" y="436" width="150" height="60" as="geometry"/>
                </mxCell>
                <mxCell id="wMbG_U5TibeuyCvaz2eE-46" value="" style="endArrow=classic;html=1;rounded=0;fontSize=24;fontStyle=0;entryX=0;entryY=0.5;entryDx=0;entryDy=0;" parent="1" target="wMbG_U5TibeuyCvaz2eE-45" edge="1">
                    <mxGeometry width="50" height="50" relative="1" as="geometry">
                        <mxPoint x="580" y="466" as="sourcePoint"/>
                        <mxPoint x="705" y="466" as="targetPoint"/>
                    </mxGeometry>
                </mxCell>
                <mxCell id="wMbG_U5TibeuyCvaz2eE-47" value="" style="endArrow=classic;html=1;rounded=0;fontSize=24;fontStyle=0;entryX=0;entryY=0.5;entryDx=0;entryDy=0;exitX=1;exitY=0.5;exitDx=0;exitDy=0;" parent="1" source="wMbG_U5TibeuyCvaz2eE-45" edge="1">
                    <mxGeometry width="50" height="50" relative="1" as="geometry">
                        <mxPoint x="860" y="465.58000000000004" as="sourcePoint"/>
                        <mxPoint x="980" y="465.58000000000004" as="targetPoint"/>
                    </mxGeometry>
                </mxCell>
                <mxCell id="wMbG_U5TibeuyCvaz2eE-48" value="" style="endArrow=classic;html=1;rounded=0;fontSize=24;fontStyle=0;entryX=1;entryY=0.5;entryDx=0;entryDy=0;" parent="1" target="wMbG_U5TibeuyCvaz2eE-49" edge="1">
                    <mxGeometry width="50" height="50" relative="1" as="geometry">
                        <mxPoint x="900" y="466" as="sourcePoint"/>
                        <mxPoint x="900" y="556" as="targetPoint"/>
                        <Array as="points">
                            <mxPoint x="900" y="556"/>
                        </Array>
                    </mxGeometry>
                </mxCell>
                <mxCell id="wMbG_U5TibeuyCvaz2eE-49" value="*" style="ellipse;whiteSpace=wrap;html=1;fontSize=24;fontStyle=1" parent="1" vertex="1">
                    <mxGeometry x="730" y="516" width="80" height="80" as="geometry"/>
                </mxCell>
                <mxCell id="wMbG_U5TibeuyCvaz2eE-50" value="/" style="ellipse;whiteSpace=wrap;html=1;fontSize=24;fontStyle=1" parent="1" vertex="1">
                    <mxGeometry x="730" y="616" width="80" height="80" as="geometry"/>
                </mxCell>
                <mxCell id="wMbG_U5TibeuyCvaz2eE-51" value="" style="endArrow=classic;html=1;rounded=0;fontSize=24;fontStyle=0;entryX=1;entryY=0.5;entryDx=0;entryDy=0;" parent="1" target="wMbG_U5TibeuyCvaz2eE-50" edge="1">
                    <mxGeometry width="50" height="50" relative="1" as="geometry">
                        <mxPoint x="900" y="466" as="sourcePoint"/>
                        <mxPoint x="820" y="566" as="targetPoint"/>
                        <Array as="points">
                            <mxPoint x="900" y="656"/>
                        </Array>
                    </mxGeometry>
                </mxCell>
                <mxCell id="wMbG_U5TibeuyCvaz2eE-52" value="" style="endArrow=classic;html=1;rounded=0;fontSize=24;fontStyle=0;exitX=0;exitY=0.5;exitDx=0;exitDy=0;" parent="1" source="wMbG_U5TibeuyCvaz2eE-50" edge="1">
                    <mxGeometry width="50" height="50" relative="1" as="geometry">
                        <mxPoint x="670" y="496" as="sourcePoint"/>
                        <mxPoint x="620" y="466" as="targetPoint"/>
                        <Array as="points">
                            <mxPoint x="620" y="656"/>
                        </Array>
                    </mxGeometry>
                </mxCell>
                <mxCell id="wMbG_U5TibeuyCvaz2eE-53" value="" style="endArrow=classic;html=1;rounded=0;fontSize=24;fontStyle=0;exitX=0;exitY=0.5;exitDx=0;exitDy=0;" parent="1" source="wMbG_U5TibeuyCvaz2eE-49" edge="1">
                    <mxGeometry width="50" height="50" relative="1" as="geometry">
                        <mxPoint x="740" y="666" as="sourcePoint"/>
                        <mxPoint x="620" y="466" as="targetPoint"/>
                        <Array as="points">
                            <mxPoint x="620" y="556"/>
                        </Array>
                    </mxGeometry>
                </mxCell>
                <mxCell id="wMbG_U5TibeuyCvaz2eE-56" value="" style="endArrow=classic;html=1;rounded=0;fontSize=24;fontStyle=0;entryX=0;entryY=0.5;entryDx=0;entryDy=0;" parent="1" edge="1">
                    <mxGeometry width="50" height="50" relative="1" as="geometry">
                        <mxPoint x="3870" y="266" as="sourcePoint"/>
                        <mxPoint x="3990" y="266" as="targetPoint"/>
                    </mxGeometry>
                </mxCell>
                <mxCell id="wMbG_U5TibeuyCvaz2eE-57" value="" style="endArrow=classic;html=1;rounded=0;fontSize=24;fontStyle=0;exitX=1;exitY=0.5;exitDx=0;exitDy=0;" parent="1" source="wMbG_U5TibeuyCvaz2eE-64" edge="1">
                    <mxGeometry width="50" height="50" relative="1" as="geometry">
                        <mxPoint x="4140" y="266" as="sourcePoint"/>
                        <mxPoint x="4440" y="266" as="targetPoint"/>
                    </mxGeometry>
                </mxCell>
                <mxCell id="wMbG_U5TibeuyCvaz2eE-64" value="Number" style="ellipse;whiteSpace=wrap;html=1;fontSize=24;fontStyle=1" parent="1" vertex="1">
                    <mxGeometry x="3990" y="226" width="140" height="80" as="geometry"/>
                </mxCell>
                <mxCell id="wMbG_U5TibeuyCvaz2eE-67" value="" style="endArrow=classic;html=1;rounded=0;fontSize=24;fontStyle=0;entryX=0;entryY=0.5;entryDx=0;entryDy=0;" parent="1" edge="1">
                    <mxGeometry width="50" height="50" relative="1" as="geometry">
                        <mxPoint x="3920" y="266" as="sourcePoint"/>
                        <mxPoint x="3990" y="356" as="targetPoint"/>
                        <Array as="points">
                            <mxPoint x="3920" y="356"/>
                        </Array>
                    </mxGeometry>
                </mxCell>
                <mxCell id="wMbG_U5TibeuyCvaz2eE-68" value="" style="endArrow=classic;html=1;rounded=0;fontSize=24;fontStyle=0;exitX=1;exitY=0.5;exitDx=0;exitDy=0;" parent="1" source="wMbG_U5TibeuyCvaz2eE-69" edge="1">
                    <mxGeometry width="50" height="50" relative="1" as="geometry">
                        <mxPoint x="4140" y="356" as="sourcePoint"/>
                        <mxPoint x="4400" y="266" as="targetPoint"/>
                        <Array as="points">
                            <mxPoint x="4400" y="356"/>
                            <mxPoint x="4400" y="306"/>
                        </Array>
                    </mxGeometry>
                </mxCell>
                <mxCell id="wMbG_U5TibeuyCvaz2eE-69" value="String" style="ellipse;whiteSpace=wrap;html=1;fontSize=24;fontStyle=1" parent="1" vertex="1">
                    <mxGeometry x="3990" y="316" width="140" height="80" as="geometry"/>
                </mxCell>
                <mxCell id="wMbG_U5TibeuyCvaz2eE-70" value="" style="endArrow=classic;html=1;rounded=0;fontSize=24;fontStyle=0;entryX=0;entryY=0.5;entryDx=0;entryDy=0;" parent="1" edge="1" target="wMbG_U5TibeuyCvaz2eE-73">
                    <mxGeometry width="50" height="50" relative="1" as="geometry">
                        <mxPoint x="3920" y="270" as="sourcePoint"/>
                        <mxPoint x="3990" y="446" as="targetPoint"/>
                        <Array as="points">
                            <mxPoint x="3920" y="540"/>
                        </Array>
                    </mxGeometry>
                </mxCell>
                <mxCell id="wMbG_U5TibeuyCvaz2eE-73" value="+" style="ellipse;whiteSpace=wrap;html=1;fontSize=24;fontStyle=1" parent="1" vertex="1">
                    <mxGeometry x="3990" y="501" width="80" height="80" as="geometry"/>
                </mxCell>
                <mxCell id="wMbG_U5TibeuyCvaz2eE-74" value="-" style="ellipse;whiteSpace=wrap;html=1;fontSize=24;fontStyle=1" parent="1" vertex="1">
                    <mxGeometry x="3990" y="591" width="80" height="80" as="geometry"/>
                </mxCell>
                <mxCell id="wMbG_U5TibeuyCvaz2eE-75" value="&lt;b&gt;Factor&lt;/b&gt;" style="rounded=0;whiteSpace=wrap;html=1;fontSize=24;fontFamily=Sora;fontSource=https%3A%2F%2Ffonts.googleapis.com%2Fcss%3Ffamily%3DSora;" parent="1" vertex="1">
                    <mxGeometry x="4120" y="511" width="150" height="60" as="geometry"/>
                </mxCell>
                <mxCell id="wMbG_U5TibeuyCvaz2eE-76" value="" style="endArrow=classic;html=1;rounded=0;fontSize=24;fontStyle=0;exitX=1;exitY=0.5;exitDx=0;exitDy=0;" parent="1" source="wMbG_U5TibeuyCvaz2eE-75" edge="1">
                    <mxGeometry width="50" height="50" relative="1" as="geometry">
                        <mxPoint x="3930" y="366" as="sourcePoint"/>
                        <mxPoint x="4400" y="266" as="targetPoint"/>
                        <Array as="points">
                            <mxPoint x="4400" y="541"/>
                        </Array>
                    </mxGeometry>
                </mxCell>
                <mxCell id="wMbG_U5TibeuyCvaz2eE-77" value="" style="endArrow=classic;html=1;rounded=0;fontSize=24;fontStyle=0;entryX=0;entryY=0.5;entryDx=0;entryDy=0;exitX=1;exitY=0.5;exitDx=0;exitDy=0;" parent="1" source="wMbG_U5TibeuyCvaz2eE-73" target="wMbG_U5TibeuyCvaz2eE-75" edge="1">
                    <mxGeometry width="50" height="50" relative="1" as="geometry">
                        <mxPoint x="3900" y="561" as="sourcePoint"/>
                        <mxPoint x="3810" y="651" as="targetPoint"/>
                        <Array as="points"/>
                    </mxGeometry>
                </mxCell>
                <mxCell id="wMbG_U5TibeuyCvaz2eE-78" value="" style="endArrow=classic;html=1;rounded=0;fontSize=24;fontStyle=0;" parent="1" edge="1">
                    <mxGeometry width="50" height="50" relative="1" as="geometry">
                        <mxPoint x="3920" y="541" as="sourcePoint"/>
                        <mxPoint x="3990" y="631" as="targetPoint"/>
                        <Array as="points">
                            <mxPoint x="3920" y="631"/>
                        </Array>
                    </mxGeometry>
                </mxCell>
                <mxCell id="wMbG_U5TibeuyCvaz2eE-79" value="" style="endArrow=classic;html=1;rounded=0;fontSize=24;fontStyle=0;entryX=0;entryY=0.5;entryDx=0;entryDy=0;exitX=1;exitY=0.5;exitDx=0;exitDy=0;" parent="1" source="wMbG_U5TibeuyCvaz2eE-74" target="wMbG_U5TibeuyCvaz2eE-75" edge="1">
                    <mxGeometry width="50" height="50" relative="1" as="geometry">
                        <mxPoint x="4080" y="551" as="sourcePoint"/>
                        <mxPoint x="4130" y="551" as="targetPoint"/>
                        <Array as="points">
                            <mxPoint x="4090" y="631"/>
                            <mxPoint x="4090" y="541"/>
                        </Array>
                    </mxGeometry>
                </mxCell>
                <mxCell id="wMbG_U5TibeuyCvaz2eE-80" value="&lt;b&gt;Boolean Expression&lt;br&gt;&lt;/b&gt;" style="rounded=0;whiteSpace=wrap;html=1;fontSize=24;fontFamily=Sora;fontSource=https%3A%2F%2Ffonts.googleapis.com%2Fcss%3Ffamily%3DSora;" parent="1" vertex="1">
                    <mxGeometry x="4110" y="791" width="150" height="60" as="geometry"/>
                </mxCell>
                <mxCell id="wMbG_U5TibeuyCvaz2eE-81" value="(" style="ellipse;whiteSpace=wrap;html=1;fontSize=24;fontStyle=1" parent="1" vertex="1">
                    <mxGeometry x="3990.5" y="781" width="80" height="80" as="geometry"/>
                </mxCell>
                <mxCell id="wMbG_U5TibeuyCvaz2eE-82" value="" style="endArrow=classic;html=1;rounded=0;fontSize=24;fontStyle=0;exitX=1;exitY=0.5;exitDx=0;exitDy=0;" parent="1" source="wMbG_U5TibeuyCvaz2eE-81" edge="1">
                    <mxGeometry width="50" height="50" relative="1" as="geometry">
                        <mxPoint x="4040" y="841" as="sourcePoint"/>
                        <mxPoint x="4110" y="821" as="targetPoint"/>
                        <Array as="points"/>
                    </mxGeometry>
                </mxCell>
                <mxCell id="wMbG_U5TibeuyCvaz2eE-83" value="" style="endArrow=classic;html=1;rounded=0;fontSize=24;fontStyle=0;exitX=1;exitY=0.5;exitDx=0;exitDy=0;entryX=0;entryY=0.5;entryDx=0;entryDy=0;" parent="1" source="wMbG_U5TibeuyCvaz2eE-80" target="wMbG_U5TibeuyCvaz2eE-84" edge="1">
                    <mxGeometry width="50" height="50" relative="1" as="geometry">
                        <mxPoint x="4230" y="821" as="sourcePoint"/>
                        <mxPoint x="4300" y="821" as="targetPoint"/>
                        <Array as="points">
                            <mxPoint x="4260" y="821"/>
                        </Array>
                    </mxGeometry>
                </mxCell>
                <mxCell id="wMbG_U5TibeuyCvaz2eE-84" value=")" style="ellipse;whiteSpace=wrap;html=1;fontSize=24;fontStyle=1" parent="1" vertex="1">
                    <mxGeometry x="4300" y="781" width="80" height="80" as="geometry"/>
                </mxCell>
                <mxCell id="wMbG_U5TibeuyCvaz2eE-86" value="" style="endArrow=classic;html=1;rounded=0;fontSize=24;fontStyle=0;exitX=1;exitY=0.5;exitDx=0;exitDy=0;" parent="1" source="wMbG_U5TibeuyCvaz2eE-84" edge="1">
                    <mxGeometry width="50" height="50" relative="1" as="geometry">
                        <mxPoint x="4280" y="556" as="sourcePoint"/>
                        <mxPoint x="4400" y="266" as="targetPoint"/>
                        <Array as="points">
                            <mxPoint x="4400" y="821"/>
                        </Array>
                    </mxGeometry>
                </mxCell>
                <mxCell id="wMbG_U5TibeuyCvaz2eE-87" value="" style="endArrow=classic;html=1;rounded=0;fontSize=24;fontStyle=0;entryX=0;entryY=0.5;entryDx=0;entryDy=0;" parent="1" edge="1" target="wMbG_U5TibeuyCvaz2eE-81">
                    <mxGeometry width="50" height="50" relative="1" as="geometry">
                        <mxPoint x="3921" y="266" as="sourcePoint"/>
                        <mxPoint x="3990.5" y="726" as="targetPoint"/>
                        <Array as="points">
                            <mxPoint x="3920" y="821"/>
                        </Array>
                    </mxGeometry>
                </mxCell>
                <mxCell id="BKlgi4SIrofSlWjP2YXj-1" value="Boolean Expression" style="text;html=1;strokeColor=none;fillColor=none;align=center;verticalAlign=middle;whiteSpace=wrap;rounded=0;fontStyle=1;labelBackgroundColor=none;fontColor=#000000;fontFamily=Sora;fontSource=https%3A%2F%2Ffonts.googleapis.com%2Fcss%3Ffamily%3DSora;fontSize=24;" parent="1" vertex="1">
                    <mxGeometry x="80" y="870" width="140" height="30" as="geometry"/>
                </mxCell>
                <mxCell id="BKlgi4SIrofSlWjP2YXj-2" value="Boolean Term" style="text;html=1;strokeColor=none;fillColor=none;align=center;verticalAlign=middle;whiteSpace=wrap;rounded=0;fontStyle=1;labelBackgroundColor=none;fontColor=#000000;fontFamily=Sora;fontSource=https%3A%2F%2Ffonts.googleapis.com%2Fcss%3Ffamily%3DSora;fontSize=24;" parent="1" vertex="1">
                    <mxGeometry x="580" y="870" width="140" height="30" as="geometry"/>
                </mxCell>
                <mxCell id="BKlgi4SIrofSlWjP2YXj-3" value="&lt;b&gt;Boolean Term&lt;/b&gt;" style="rounded=0;whiteSpace=wrap;html=1;fontSize=24;fontFamily=Sora;fontSource=https%3A%2F%2Ffonts.googleapis.com%2Fcss%3Ffamily%3DSora;" parent="1" vertex="1">
                    <mxGeometry x="200" y="930" width="150" height="60" as="geometry"/>
                </mxCell>
                <mxCell id="BKlgi4SIrofSlWjP2YXj-4" value="" style="endArrow=classic;html=1;rounded=0;fontSize=24;fontStyle=0;entryX=0;entryY=0.5;entryDx=0;entryDy=0;" parent="1" target="BKlgi4SIrofSlWjP2YXj-3" edge="1">
                    <mxGeometry width="50" height="50" relative="1" as="geometry">
                        <mxPoint x="80" y="960" as="sourcePoint"/>
                        <mxPoint x="205" y="960" as="targetPoint"/>
                    </mxGeometry>
                </mxCell>
                <mxCell id="BKlgi4SIrofSlWjP2YXj-5" value="" style="endArrow=classic;html=1;rounded=0;fontSize=24;fontStyle=0;entryX=0;entryY=0.5;entryDx=0;entryDy=0;exitX=1;exitY=0.5;exitDx=0;exitDy=0;" parent="1" source="BKlgi4SIrofSlWjP2YXj-3" edge="1">
                    <mxGeometry width="50" height="50" relative="1" as="geometry">
                        <mxPoint x="360" y="959.58" as="sourcePoint"/>
                        <mxPoint x="480" y="959.58" as="targetPoint"/>
                    </mxGeometry>
                </mxCell>
                <mxCell id="BKlgi4SIrofSlWjP2YXj-6" value="" style="endArrow=classic;html=1;rounded=0;fontSize=24;fontStyle=0;entryX=1;entryY=0.5;entryDx=0;entryDy=0;" parent="1" target="BKlgi4SIrofSlWjP2YXj-7" edge="1">
                    <mxGeometry width="50" height="50" relative="1" as="geometry">
                        <mxPoint x="400" y="960" as="sourcePoint"/>
                        <mxPoint x="400" y="1050" as="targetPoint"/>
                        <Array as="points">
                            <mxPoint x="400" y="1050"/>
                        </Array>
                    </mxGeometry>
                </mxCell>
                <mxCell id="BKlgi4SIrofSlWjP2YXj-7" value="||" style="ellipse;whiteSpace=wrap;html=1;fontSize=24;fontStyle=1" parent="1" vertex="1">
                    <mxGeometry x="230" y="1010" width="80" height="80" as="geometry"/>
                </mxCell>
                <mxCell id="BKlgi4SIrofSlWjP2YXj-11" value="" style="endArrow=classic;html=1;rounded=0;fontSize=24;fontStyle=0;exitX=0;exitY=0.5;exitDx=0;exitDy=0;" parent="1" source="BKlgi4SIrofSlWjP2YXj-7" edge="1">
                    <mxGeometry width="50" height="50" relative="1" as="geometry">
                        <mxPoint x="240" y="1160" as="sourcePoint"/>
                        <mxPoint x="120" y="960" as="targetPoint"/>
                        <Array as="points">
                            <mxPoint x="120" y="1050"/>
                        </Array>
                    </mxGeometry>
                </mxCell>
                <mxCell id="BKlgi4SIrofSlWjP2YXj-12" value="&lt;b&gt;Relational Expression&lt;br&gt;&lt;/b&gt;" style="rounded=0;whiteSpace=wrap;html=1;fontSize=24;fontFamily=Sora;fontSource=https%3A%2F%2Ffonts.googleapis.com%2Fcss%3Ffamily%3DSora;" parent="1" vertex="1">
                    <mxGeometry x="700" y="930" width="150" height="60" as="geometry"/>
                </mxCell>
                <mxCell id="BKlgi4SIrofSlWjP2YXj-13" value="" style="endArrow=classic;html=1;rounded=0;fontSize=24;fontStyle=0;entryX=0;entryY=0.5;entryDx=0;entryDy=0;" parent="1" target="BKlgi4SIrofSlWjP2YXj-12" edge="1">
                    <mxGeometry width="50" height="50" relative="1" as="geometry">
                        <mxPoint x="580" y="960" as="sourcePoint"/>
                        <mxPoint x="705" y="960" as="targetPoint"/>
                    </mxGeometry>
                </mxCell>
                <mxCell id="BKlgi4SIrofSlWjP2YXj-14" value="" style="endArrow=classic;html=1;rounded=0;fontSize=24;fontStyle=0;entryX=0;entryY=0.5;entryDx=0;entryDy=0;exitX=1;exitY=0.5;exitDx=0;exitDy=0;" parent="1" source="BKlgi4SIrofSlWjP2YXj-12" edge="1">
                    <mxGeometry width="50" height="50" relative="1" as="geometry">
                        <mxPoint x="860" y="959.58" as="sourcePoint"/>
                        <mxPoint x="980" y="959.58" as="targetPoint"/>
                    </mxGeometry>
                </mxCell>
                <mxCell id="BKlgi4SIrofSlWjP2YXj-15" value="" style="endArrow=classic;html=1;rounded=0;fontSize=24;fontStyle=0;entryX=1;entryY=0.5;entryDx=0;entryDy=0;" parent="1" target="BKlgi4SIrofSlWjP2YXj-16" edge="1">
                    <mxGeometry width="50" height="50" relative="1" as="geometry">
                        <mxPoint x="900" y="960" as="sourcePoint"/>
                        <mxPoint x="900" y="1050" as="targetPoint"/>
                        <Array as="points">
                            <mxPoint x="900" y="1050"/>
                        </Array>
                    </mxGeometry>
                </mxCell>
                <mxCell id="BKlgi4SIrofSlWjP2YXj-16" value="&amp;amp;&amp;amp;" style="ellipse;whiteSpace=wrap;html=1;fontSize=24;fontStyle=1" parent="1" vertex="1">
                    <mxGeometry x="730" y="1010" width="80" height="80" as="geometry"/>
                </mxCell>
                <mxCell id="BKlgi4SIrofSlWjP2YXj-20" value="" style="endArrow=classic;html=1;rounded=0;fontSize=24;fontStyle=0;exitX=0;exitY=0.5;exitDx=0;exitDy=0;" parent="1" source="BKlgi4SIrofSlWjP2YXj-16" edge="1">
                    <mxGeometry width="50" height="50" relative="1" as="geometry">
                        <mxPoint x="740" y="1160" as="sourcePoint"/>
                        <mxPoint x="620" y="960" as="targetPoint"/>
                        <Array as="points">
                            <mxPoint x="620" y="1050"/>
                        </Array>
                    </mxGeometry>
                </mxCell>
                <mxCell id="BKlgi4SIrofSlWjP2YXj-21" value="Relational Expression" style="text;html=1;strokeColor=none;fillColor=none;align=center;verticalAlign=middle;whiteSpace=wrap;rounded=0;fontStyle=1;labelBackgroundColor=none;fontColor=#000000;fontFamily=Sora;fontSource=https%3A%2F%2Ffonts.googleapis.com%2Fcss%3Ffamily%3DSora;fontSize=24;" parent="1" vertex="1">
                    <mxGeometry x="1050" y="600" width="140" height="30" as="geometry"/>
                </mxCell>
                <mxCell id="BKlgi4SIrofSlWjP2YXj-22" value="&lt;b&gt;Expression&lt;/b&gt;" style="rounded=0;whiteSpace=wrap;html=1;fontSize=24;fontFamily=Sora;fontSource=https%3A%2F%2Ffonts.googleapis.com%2Fcss%3Ffamily%3DSora;" parent="1" vertex="1">
                    <mxGeometry x="1170" y="660" width="150" height="60" as="geometry"/>
                </mxCell>
                <mxCell id="BKlgi4SIrofSlWjP2YXj-23" value="" style="endArrow=classic;html=1;rounded=0;fontSize=24;fontStyle=0;entryX=0;entryY=0.5;entryDx=0;entryDy=0;" parent="1" target="BKlgi4SIrofSlWjP2YXj-22" edge="1">
                    <mxGeometry width="50" height="50" relative="1" as="geometry">
                        <mxPoint x="1050" y="690" as="sourcePoint"/>
                        <mxPoint x="1175" y="690" as="targetPoint"/>
                    </mxGeometry>
                </mxCell>
                <mxCell id="BKlgi4SIrofSlWjP2YXj-24" value="" style="endArrow=classic;html=1;rounded=0;fontSize=24;fontStyle=0;entryX=0;entryY=0.5;entryDx=0;entryDy=0;exitX=1;exitY=0.5;exitDx=0;exitDy=0;" parent="1" source="BKlgi4SIrofSlWjP2YXj-22" edge="1">
                    <mxGeometry width="50" height="50" relative="1" as="geometry">
                        <mxPoint x="1330" y="689.5799999999999" as="sourcePoint"/>
                        <mxPoint x="1450" y="689.5799999999999" as="targetPoint"/>
                    </mxGeometry>
                </mxCell>
                <mxCell id="BKlgi4SIrofSlWjP2YXj-26" value="==" style="ellipse;whiteSpace=wrap;html=1;fontSize=24;fontStyle=1" parent="1" vertex="1">
                    <mxGeometry x="1200" y="740" width="80" height="80" as="geometry"/>
                </mxCell>
                <mxCell id="BKlgi4SIrofSlWjP2YXj-27" value="&amp;gt;" style="ellipse;whiteSpace=wrap;html=1;fontSize=24;fontStyle=1" parent="1" vertex="1">
                    <mxGeometry x="1200" y="840" width="80" height="80" as="geometry"/>
                </mxCell>
                <mxCell id="BKlgi4SIrofSlWjP2YXj-31" value="&amp;lt;" style="ellipse;whiteSpace=wrap;html=1;fontSize=24;fontStyle=1" parent="1" vertex="1">
                    <mxGeometry x="1200" y="940" width="80" height="80" as="geometry"/>
                </mxCell>
                <mxCell id="BKlgi4SIrofSlWjP2YXj-34" value="!" style="ellipse;whiteSpace=wrap;html=1;fontSize=24;fontStyle=1" parent="1" vertex="1">
                    <mxGeometry x="3990" y="681" width="80" height="80" as="geometry"/>
                </mxCell>
                <mxCell id="BKlgi4SIrofSlWjP2YXj-35" value="" style="endArrow=classic;html=1;rounded=0;fontSize=24;fontStyle=0;" parent="1" edge="1">
                    <mxGeometry width="50" height="50" relative="1" as="geometry">
                        <mxPoint x="3920" y="631" as="sourcePoint"/>
                        <mxPoint x="3990" y="721" as="targetPoint"/>
                        <Array as="points">
                            <mxPoint x="3920" y="721"/>
                        </Array>
                    </mxGeometry>
                </mxCell>
                <mxCell id="BKlgi4SIrofSlWjP2YXj-36" value="" style="endArrow=classic;html=1;rounded=0;fontSize=24;fontStyle=0;entryX=0;entryY=0.5;entryDx=0;entryDy=0;exitX=1;exitY=0.5;exitDx=0;exitDy=0;" parent="1" source="BKlgi4SIrofSlWjP2YXj-34" target="wMbG_U5TibeuyCvaz2eE-75" edge="1">
                    <mxGeometry width="50" height="50" relative="1" as="geometry">
                        <mxPoint x="4080" y="641" as="sourcePoint"/>
                        <mxPoint x="4120" y="631" as="targetPoint"/>
                        <Array as="points">
                            <mxPoint x="4090" y="721"/>
                            <mxPoint x="4090" y="541"/>
                        </Array>
                    </mxGeometry>
                </mxCell>
                <mxCell id="BKlgi4SIrofSlWjP2YXj-37" value="Block" style="text;html=1;strokeColor=none;fillColor=none;align=center;verticalAlign=middle;whiteSpace=wrap;rounded=0;fontStyle=1;labelBackgroundColor=none;fontColor=#000000;fontFamily=Sora;fontSource=https%3A%2F%2Ffonts.googleapis.com%2Fcss%3Ffamily%3DSora;fontSize=24;" parent="1" vertex="1">
                    <mxGeometry x="500" y="70" width="100" height="30" as="geometry"/>
                </mxCell>
                <mxCell id="BKlgi4SIrofSlWjP2YXj-38" value="&lt;b&gt;Statement&lt;/b&gt;" style="rounded=0;whiteSpace=wrap;html=1;fontSize=24;fontFamily=Sora;fontSource=https%3A%2F%2Ffonts.googleapis.com%2Fcss%3Ffamily%3DSora;" parent="1" vertex="1">
                    <mxGeometry x="920" y="210" width="150" height="60" as="geometry"/>
                </mxCell>
                <mxCell id="BKlgi4SIrofSlWjP2YXj-39" value="" style="endArrow=classic;html=1;rounded=0;fontSize=24;fontStyle=0;entryX=0;entryY=0.5;entryDx=0;entryDy=0;" parent="1" target="BKlgi4SIrofSlWjP2YXj-42" edge="1">
                    <mxGeometry width="50" height="50" relative="1" as="geometry">
                        <mxPoint x="520" y="160" as="sourcePoint"/>
                        <mxPoint x="620" y="160" as="targetPoint"/>
                    </mxGeometry>
                </mxCell>
                <mxCell id="BKlgi4SIrofSlWjP2YXj-42" value="{" style="ellipse;whiteSpace=wrap;html=1;fontSize=24;fontStyle=1" parent="1" vertex="1">
                    <mxGeometry x="620" y="120" width="80" height="80" as="geometry"/>
                </mxCell>
                <mxCell id="BKlgi4SIrofSlWjP2YXj-43" value="" style="endArrow=classic;html=1;rounded=0;fontSize=24;fontStyle=0;entryX=0;entryY=0.5;entryDx=0;entryDy=0;" parent="1" target="BKlgi4SIrofSlWjP2YXj-44" edge="1">
                    <mxGeometry width="50" height="50" relative="1" as="geometry">
                        <mxPoint x="650" y="160" as="sourcePoint"/>
                        <mxPoint x="750" y="160" as="targetPoint"/>
                    </mxGeometry>
                </mxCell>
                <mxCell id="BKlgi4SIrofSlWjP2YXj-44" value="\n" style="ellipse;whiteSpace=wrap;html=1;fontSize=24;fontStyle=1" parent="1" vertex="1">
                    <mxGeometry x="750" y="120" width="80" height="80" as="geometry"/>
                </mxCell>
                <mxCell id="BKlgi4SIrofSlWjP2YXj-45" value="" style="endArrow=classic;html=1;rounded=0;fontSize=24;fontStyle=0;entryX=0;entryY=0.5;entryDx=0;entryDy=0;exitX=1;exitY=0.5;exitDx=0;exitDy=0;" parent="1" source="BKlgi4SIrofSlWjP2YXj-44" target="BKlgi4SIrofSlWjP2YXj-46" edge="1">
                    <mxGeometry width="50" height="50" relative="1" as="geometry">
                        <mxPoint x="850" y="160" as="sourcePoint"/>
                        <mxPoint x="950" y="160" as="targetPoint"/>
                    </mxGeometry>
                </mxCell>
                <mxCell id="BKlgi4SIrofSlWjP2YXj-46" value="}" style="ellipse;whiteSpace=wrap;html=1;fontSize=24;fontStyle=1" parent="1" vertex="1">
                    <mxGeometry x="1180" y="120" width="80" height="80" as="geometry"/>
                </mxCell>
                <mxCell id="BKlgi4SIrofSlWjP2YXj-47" value="" style="endArrow=classic;html=1;rounded=0;fontSize=24;fontStyle=0;exitX=1;exitY=0.5;exitDx=0;exitDy=0;" parent="1" source="BKlgi4SIrofSlWjP2YXj-46" edge="1">
                    <mxGeometry width="50" height="50" relative="1" as="geometry">
                        <mxPoint x="840" y="170" as="sourcePoint"/>
                        <mxPoint x="1360" y="160" as="targetPoint"/>
                    </mxGeometry>
                </mxCell>
                <mxCell id="BKlgi4SIrofSlWjP2YXj-51" value="" style="endArrow=classic;html=1;rounded=0;fontSize=24;fontStyle=0;entryX=0;entryY=0.5;entryDx=0;entryDy=0;" parent="1" target="BKlgi4SIrofSlWjP2YXj-52" edge="1">
                    <mxGeometry width="50" height="50" relative="1" as="geometry">
                        <mxPoint x="1690" y="200" as="sourcePoint"/>
                        <mxPoint x="1740" y="411" as="targetPoint"/>
                        <Array as="points">
                            <mxPoint x="1690" y="391"/>
                        </Array>
                    </mxGeometry>
                </mxCell>
                <mxCell id="BKlgi4SIrofSlWjP2YXj-52" value="if" style="ellipse;whiteSpace=wrap;html=1;fontSize=24;fontStyle=1" parent="1" vertex="1">
                    <mxGeometry x="1740" y="351" width="140" height="80" as="geometry"/>
                </mxCell>
                <mxCell id="BKlgi4SIrofSlWjP2YXj-53" value="Boolean &lt;b&gt;Expression&lt;/b&gt;" style="rounded=0;whiteSpace=wrap;html=1;fontSize=24;fontFamily=Sora;fontSource=https%3A%2F%2Ffonts.googleapis.com%2Fcss%3Ffamily%3DSora;" parent="1" vertex="1">
                    <mxGeometry x="1940" y="361" width="150" height="60" as="geometry"/>
                </mxCell>
                <mxCell id="BKlgi4SIrofSlWjP2YXj-54" value="" style="endArrow=classic;html=1;rounded=0;fontSize=24;fontStyle=0;entryX=0;entryY=0.5;entryDx=0;entryDy=0;" parent="1" target="BKlgi4SIrofSlWjP2YXj-53" edge="1">
                    <mxGeometry width="50" height="50" relative="1" as="geometry">
                        <mxPoint x="1880" y="391" as="sourcePoint"/>
                        <mxPoint x="1860" y="481" as="targetPoint"/>
                        <Array as="points"/>
                    </mxGeometry>
                </mxCell>
                <mxCell id="BKlgi4SIrofSlWjP2YXj-55" value="Block" style="rounded=0;whiteSpace=wrap;html=1;fontSize=24;fontFamily=Sora;fontSource=https%3A%2F%2Ffonts.googleapis.com%2Fcss%3Ffamily%3DSora;" parent="1" vertex="1">
                    <mxGeometry x="2143" y="361" width="150" height="60" as="geometry"/>
                </mxCell>
                <mxCell id="BKlgi4SIrofSlWjP2YXj-56" value="" style="endArrow=classic;html=1;rounded=0;fontSize=24;fontStyle=0;entryX=0;entryY=0.5;entryDx=0;entryDy=0;" parent="1" target="BKlgi4SIrofSlWjP2YXj-55" edge="1">
                    <mxGeometry width="50" height="50" relative="1" as="geometry">
                        <mxPoint x="2090" y="391" as="sourcePoint"/>
                        <mxPoint x="2063" y="481" as="targetPoint"/>
                        <Array as="points"/>
                    </mxGeometry>
                </mxCell>
                <mxCell id="BKlgi4SIrofSlWjP2YXj-57" value="" style="endArrow=classic;html=1;rounded=0;fontSize=24;fontStyle=0;exitX=1;exitY=0.5;exitDx=0;exitDy=0;" parent="1" source="BKlgi4SIrofSlWjP2YXj-55" edge="1">
                    <mxGeometry width="50" height="50" relative="1" as="geometry">
                        <mxPoint x="2360" y="381" as="sourcePoint"/>
                        <mxPoint x="2610" y="200" as="targetPoint"/>
                        <Array as="points">
                            <mxPoint x="2610" y="391"/>
                        </Array>
                    </mxGeometry>
                </mxCell>
                <mxCell id="BKlgi4SIrofSlWjP2YXj-59" value="else" style="ellipse;whiteSpace=wrap;html=1;fontSize=24;fontStyle=1" parent="1" vertex="1">
                    <mxGeometry x="2380" y="431" width="140" height="80" as="geometry"/>
                </mxCell>
                <mxCell id="BKlgi4SIrofSlWjP2YXj-60" value="Block" style="rounded=0;whiteSpace=wrap;html=1;fontSize=24;fontFamily=Sora;fontSource=https%3A%2F%2Ffonts.googleapis.com%2Fcss%3Ffamily%3DSora;" parent="1" vertex="1">
                    <mxGeometry x="2580" y="441" width="150" height="60" as="geometry"/>
                </mxCell>
                <mxCell id="BKlgi4SIrofSlWjP2YXj-61" value="" style="endArrow=classic;html=1;rounded=0;fontSize=24;fontStyle=0;entryX=0;entryY=0.5;entryDx=0;entryDy=0;exitX=1;exitY=0.5;exitDx=0;exitDy=0;" parent="1" source="BKlgi4SIrofSlWjP2YXj-59" target="BKlgi4SIrofSlWjP2YXj-60" edge="1">
                    <mxGeometry width="50" height="50" relative="1" as="geometry">
                        <mxPoint x="2600" y="471" as="sourcePoint"/>
                        <mxPoint x="2490" y="576" as="targetPoint"/>
                        <Array as="points"/>
                    </mxGeometry>
                </mxCell>
                <mxCell id="BKlgi4SIrofSlWjP2YXj-62" value="" style="endArrow=classic;html=1;rounded=0;fontSize=24;fontStyle=0;entryX=0;entryY=0.5;entryDx=0;entryDy=0;" parent="1" target="BKlgi4SIrofSlWjP2YXj-59" edge="1">
                    <mxGeometry width="50" height="50" relative="1" as="geometry">
                        <mxPoint x="2330" y="391" as="sourcePoint"/>
                        <mxPoint x="2380" y="470.58000000000004" as="targetPoint"/>
                        <Array as="points">
                            <mxPoint x="2330" y="471"/>
                        </Array>
                    </mxGeometry>
                </mxCell>
                <mxCell id="BKlgi4SIrofSlWjP2YXj-63" value="" style="endArrow=classic;html=1;rounded=0;fontSize=24;fontStyle=0;exitX=1;exitY=0.5;exitDx=0;exitDy=0;" parent="1" source="BKlgi4SIrofSlWjP2YXj-60" edge="1">
                    <mxGeometry width="50" height="50" relative="1" as="geometry">
                        <mxPoint x="2820" y="471" as="sourcePoint"/>
                        <mxPoint x="2780" y="200" as="targetPoint"/>
                        <Array as="points">
                            <mxPoint x="2780" y="471"/>
                        </Array>
                    </mxGeometry>
                </mxCell>
                <mxCell id="BKlgi4SIrofSlWjP2YXj-64" value="" style="endArrow=classic;html=1;rounded=0;fontSize=24;fontStyle=0;entryX=0;entryY=0.5;entryDx=0;entryDy=0;" parent="1" target="BKlgi4SIrofSlWjP2YXj-65" edge="1">
                    <mxGeometry width="50" height="50" relative="1" as="geometry">
                        <mxPoint x="3920" y="266" as="sourcePoint"/>
                        <mxPoint x="3990" y="846" as="targetPoint"/>
                        <Array as="points">
                            <mxPoint x="3920" y="931"/>
                        </Array>
                    </mxGeometry>
                </mxCell>
                <mxCell id="BKlgi4SIrofSlWjP2YXj-65" value="Scanln" style="ellipse;whiteSpace=wrap;html=1;fontSize=24;fontStyle=1" parent="1" vertex="1">
                    <mxGeometry x="3970" y="890" width="140" height="80" as="geometry"/>
                </mxCell>
                <mxCell id="BKlgi4SIrofSlWjP2YXj-67" value="(" style="ellipse;whiteSpace=wrap;html=1;fontSize=24;fontStyle=1" parent="1" vertex="1">
                    <mxGeometry x="4155" y="890" width="80" height="80" as="geometry"/>
                </mxCell>
                <mxCell id="BKlgi4SIrofSlWjP2YXj-68" value="" style="endArrow=classic;html=1;rounded=0;fontSize=24;fontStyle=0;exitX=1;exitY=0.5;exitDx=0;exitDy=0;entryX=0;entryY=0.5;entryDx=0;entryDy=0;" parent="1" source="BKlgi4SIrofSlWjP2YXj-67" target="BKlgi4SIrofSlWjP2YXj-69" edge="1">
                    <mxGeometry width="50" height="50" relative="1" as="geometry">
                        <mxPoint x="4260" y="931" as="sourcePoint"/>
                        <mxPoint x="4300" y="931" as="targetPoint"/>
                        <Array as="points"/>
                    </mxGeometry>
                </mxCell>
                <mxCell id="BKlgi4SIrofSlWjP2YXj-69" value=")" style="ellipse;whiteSpace=wrap;html=1;fontSize=24;fontStyle=1" parent="1" vertex="1">
                    <mxGeometry x="4300" y="890" width="80" height="80" as="geometry"/>
                </mxCell>
                <mxCell id="BKlgi4SIrofSlWjP2YXj-70" value="" style="endArrow=classic;html=1;rounded=0;fontSize=24;fontStyle=0;exitX=1;exitY=0.5;exitDx=0;exitDy=0;" parent="1" edge="1" source="BKlgi4SIrofSlWjP2YXj-69">
                    <mxGeometry width="50" height="50" relative="1" as="geometry">
                        <mxPoint x="4380" y="826" as="sourcePoint"/>
                        <mxPoint x="4400" y="266" as="targetPoint"/>
                        <Array as="points">
                            <mxPoint x="4400" y="930"/>
                        </Array>
                    </mxGeometry>
                </mxCell>
                <mxCell id="BKlgi4SIrofSlWjP2YXj-71" value="" style="endArrow=classic;html=1;rounded=0;fontSize=24;fontStyle=0;entryX=0;entryY=0.5;entryDx=0;entryDy=0;" parent="1" target="BKlgi4SIrofSlWjP2YXj-72" edge="1">
                    <mxGeometry width="50" height="50" relative="1" as="geometry">
                        <mxPoint x="1690" y="200" as="sourcePoint"/>
                        <mxPoint x="1735" y="616" as="targetPoint"/>
                        <Array as="points">
                            <mxPoint x="1690" y="596"/>
                        </Array>
                    </mxGeometry>
                </mxCell>
                <mxCell id="BKlgi4SIrofSlWjP2YXj-72" value="for" style="ellipse;whiteSpace=wrap;html=1;fontSize=24;fontStyle=1" parent="1" vertex="1">
                    <mxGeometry x="1735" y="556" width="140" height="80" as="geometry"/>
                </mxCell>
                <mxCell id="BKlgi4SIrofSlWjP2YXj-73" value="" style="endArrow=classic;html=1;rounded=0;fontSize=24;fontStyle=0;entryX=0;entryY=0.5;entryDx=0;entryDy=0;" parent="1" target="BKlgi4SIrofSlWjP2YXj-74" edge="1">
                    <mxGeometry width="50" height="50" relative="1" as="geometry">
                        <mxPoint x="1875" y="596" as="sourcePoint"/>
                        <mxPoint x="1935" y="596" as="targetPoint"/>
                        <Array as="points"/>
                    </mxGeometry>
                </mxCell>
                <mxCell id="BKlgi4SIrofSlWjP2YXj-74" value="Assign" style="rounded=0;whiteSpace=wrap;html=1;fontSize=24;fontFamily=Sora;fontSource=https%3A%2F%2Ffonts.googleapis.com%2Fcss%3Ffamily%3DSora;" parent="1" vertex="1">
                    <mxGeometry x="1940" y="566" width="150" height="60" as="geometry"/>
                </mxCell>
                <mxCell id="BKlgi4SIrofSlWjP2YXj-75" value="Boolean &lt;b&gt;Expression&lt;/b&gt;" style="rounded=0;whiteSpace=wrap;html=1;fontSize=24;fontFamily=Sora;fontSource=https%3A%2F%2Ffonts.googleapis.com%2Fcss%3Ffamily%3DSora;" parent="1" vertex="1">
                    <mxGeometry x="3842" y="1040" width="150" height="60" as="geometry"/>
                </mxCell>
                <mxCell id="BKlgi4SIrofSlWjP2YXj-76" value="" style="endArrow=classic;html=1;rounded=0;fontSize=24;fontStyle=0;entryX=0;entryY=0.5;entryDx=0;entryDy=0;" parent="1" target="BKlgi4SIrofSlWjP2YXj-77" edge="1">
                    <mxGeometry width="50" height="50" relative="1" as="geometry">
                        <mxPoint x="3382" y="1070" as="sourcePoint"/>
                        <mxPoint x="3462" y="1070" as="targetPoint"/>
                        <Array as="points">
                            <mxPoint x="3412" y="1070"/>
                        </Array>
                    </mxGeometry>
                </mxCell>
                <mxCell id="BKlgi4SIrofSlWjP2YXj-77" value="Identifier" style="ellipse;whiteSpace=wrap;html=1;fontSize=24;fontStyle=1" parent="1" vertex="1">
                    <mxGeometry x="3462" y="1030" width="140" height="80" as="geometry"/>
                </mxCell>
                <mxCell id="BKlgi4SIrofSlWjP2YXj-78" value="" style="endArrow=classic;html=1;rounded=0;fontSize=24;fontStyle=0;exitX=1;exitY=0.5;exitDx=0;exitDy=0;" parent="1" source="BKlgi4SIrofSlWjP2YXj-77" edge="1">
                    <mxGeometry width="50" height="50" relative="1" as="geometry">
                        <mxPoint x="3672" y="1060" as="sourcePoint"/>
                        <mxPoint x="3672" y="1070" as="targetPoint"/>
                        <Array as="points">
                            <mxPoint x="3632" y="1070"/>
                        </Array>
                    </mxGeometry>
                </mxCell>
                <mxCell id="BKlgi4SIrofSlWjP2YXj-79" value="=" style="ellipse;whiteSpace=wrap;html=1;fontSize=24;fontStyle=1" parent="1" vertex="1">
                    <mxGeometry x="3672" y="1030" width="80" height="80" as="geometry"/>
                </mxCell>
                <mxCell id="BKlgi4SIrofSlWjP2YXj-80" value="" style="endArrow=classic;html=1;rounded=0;fontSize=24;fontStyle=0;entryX=0;entryY=0.5;entryDx=0;entryDy=0;exitX=1;exitY=0.5;exitDx=0;exitDy=0;" parent="1" source="BKlgi4SIrofSlWjP2YXj-79" target="BKlgi4SIrofSlWjP2YXj-75" edge="1">
                    <mxGeometry width="50" height="50" relative="1" as="geometry">
                        <mxPoint x="3802" y="1090" as="sourcePoint"/>
                        <mxPoint x="3762" y="1160" as="targetPoint"/>
                        <Array as="points"/>
                    </mxGeometry>
                </mxCell>
                <mxCell id="BKlgi4SIrofSlWjP2YXj-81" value="" style="endArrow=classic;html=1;rounded=0;fontSize=24;fontStyle=0;exitX=1;exitY=0.5;exitDx=0;exitDy=0;" parent="1" source="BKlgi4SIrofSlWjP2YXj-75" edge="1">
                    <mxGeometry width="50" height="50" relative="1" as="geometry">
                        <mxPoint x="3689" y="1230" as="sourcePoint"/>
                        <mxPoint x="4112" y="1070" as="targetPoint"/>
                        <Array as="points">
                            <mxPoint x="4082" y="1070"/>
                        </Array>
                    </mxGeometry>
                </mxCell>
                <mxCell id="BKlgi4SIrofSlWjP2YXj-83" value="" style="endArrow=classic;html=1;rounded=0;fontSize=24;fontStyle=0;exitX=1;exitY=0.5;exitDx=0;exitDy=0;" parent="1" edge="1">
                    <mxGeometry width="50" height="50" relative="1" as="geometry">
                        <mxPoint x="2090" y="596" as="sourcePoint"/>
                        <mxPoint x="2160" y="596" as="targetPoint"/>
                        <Array as="points">
                            <mxPoint x="2120" y="596"/>
                        </Array>
                    </mxGeometry>
                </mxCell>
                <mxCell id="BKlgi4SIrofSlWjP2YXj-84" value=";" style="ellipse;whiteSpace=wrap;html=1;fontSize=24;fontStyle=1" parent="1" vertex="1">
                    <mxGeometry x="2160" y="556" width="80" height="80" as="geometry"/>
                </mxCell>
                <mxCell id="BKlgi4SIrofSlWjP2YXj-85" value="" style="endArrow=classic;html=1;rounded=0;fontSize=24;fontStyle=0;entryX=0;entryY=0.5;entryDx=0;entryDy=0;" parent="1" target="BKlgi4SIrofSlWjP2YXj-86" edge="1">
                    <mxGeometry width="50" height="50" relative="1" as="geometry">
                        <mxPoint x="2240" y="596" as="sourcePoint"/>
                        <mxPoint x="2300" y="596" as="targetPoint"/>
                        <Array as="points"/>
                    </mxGeometry>
                </mxCell>
                <mxCell id="BKlgi4SIrofSlWjP2YXj-86" value="Boolean Expression" style="rounded=0;whiteSpace=wrap;html=1;fontSize=24;fontFamily=Sora;fontSource=https%3A%2F%2Ffonts.googleapis.com%2Fcss%3Ffamily%3DSora;" parent="1" vertex="1">
                    <mxGeometry x="2305" y="566" width="150" height="60" as="geometry"/>
                </mxCell>
                <mxCell id="BKlgi4SIrofSlWjP2YXj-87" value="" style="endArrow=classic;html=1;rounded=0;fontSize=24;fontStyle=0;exitX=1;exitY=0.5;exitDx=0;exitDy=0;" parent="1" edge="1">
                    <mxGeometry width="50" height="50" relative="1" as="geometry">
                        <mxPoint x="2455" y="596" as="sourcePoint"/>
                        <mxPoint x="2525" y="596" as="targetPoint"/>
                        <Array as="points">
                            <mxPoint x="2485" y="596"/>
                        </Array>
                    </mxGeometry>
                </mxCell>
                <mxCell id="BKlgi4SIrofSlWjP2YXj-88" value=";" style="ellipse;whiteSpace=wrap;html=1;fontSize=24;fontStyle=1" parent="1" vertex="1">
                    <mxGeometry x="2525" y="556" width="80" height="80" as="geometry"/>
                </mxCell>
                <mxCell id="BKlgi4SIrofSlWjP2YXj-89" value="" style="endArrow=classic;html=1;rounded=0;fontSize=24;fontStyle=0;entryX=0;entryY=0.5;entryDx=0;entryDy=0;" parent="1" target="BKlgi4SIrofSlWjP2YXj-90" edge="1">
                    <mxGeometry width="50" height="50" relative="1" as="geometry">
                        <mxPoint x="2605" y="596" as="sourcePoint"/>
                        <mxPoint x="2665" y="596" as="targetPoint"/>
                        <Array as="points"/>
                    </mxGeometry>
                </mxCell>
                <mxCell id="BKlgi4SIrofSlWjP2YXj-90" value="Assign" style="rounded=0;whiteSpace=wrap;html=1;fontSize=24;fontFamily=Sora;fontSource=https%3A%2F%2Ffonts.googleapis.com%2Fcss%3Ffamily%3DSora;" parent="1" vertex="1">
                    <mxGeometry x="2670" y="566" width="150" height="60" as="geometry"/>
                </mxCell>
                <mxCell id="BKlgi4SIrofSlWjP2YXj-91" value="" style="endArrow=classic;html=1;rounded=0;fontSize=24;fontStyle=0;exitX=1;exitY=0.5;exitDx=0;exitDy=0;entryX=0;entryY=0.5;entryDx=0;entryDy=0;" parent="1" target="BKlgi4SIrofSlWjP2YXj-93" edge="1">
                    <mxGeometry width="50" height="50" relative="1" as="geometry">
                        <mxPoint x="2820" y="596" as="sourcePoint"/>
                        <mxPoint x="2890" y="596" as="targetPoint"/>
                        <Array as="points">
                            <mxPoint x="2850" y="596"/>
                        </Array>
                    </mxGeometry>
                </mxCell>
                <mxCell id="BKlgi4SIrofSlWjP2YXj-93" value="Block" style="rounded=0;whiteSpace=wrap;html=1;fontSize=24;fontFamily=Sora;fontSource=https%3A%2F%2Ffonts.googleapis.com%2Fcss%3Ffamily%3DSora;" parent="1" vertex="1">
                    <mxGeometry x="2895" y="566" width="150" height="60" as="geometry"/>
                </mxCell>
                <mxCell id="BKlgi4SIrofSlWjP2YXj-95" value="" style="endArrow=classic;html=1;rounded=0;fontSize=24;fontStyle=0;exitX=1;exitY=0.5;exitDx=0;exitDy=0;" parent="1" source="BKlgi4SIrofSlWjP2YXj-93" edge="1">
                    <mxGeometry width="50" height="50" relative="1" as="geometry">
                        <mxPoint x="3090" y="601" as="sourcePoint"/>
                        <mxPoint x="3140" y="200" as="targetPoint"/>
                        <Array as="points">
                            <mxPoint x="3140" y="596"/>
                        </Array>
                    </mxGeometry>
                </mxCell>
                <mxCell id="BKlgi4SIrofSlWjP2YXj-96" value="" style="endArrow=classic;html=1;rounded=0;fontSize=24;fontStyle=0;entryX=0;entryY=0.5;entryDx=0;entryDy=0;" parent="1" target="BKlgi4SIrofSlWjP2YXj-97" edge="1">
                    <mxGeometry width="50" height="50" relative="1" as="geometry">
                        <mxPoint x="1690" y="200" as="sourcePoint"/>
                        <mxPoint x="1735" y="736" as="targetPoint"/>
                        <Array as="points">
                            <mxPoint x="1690" y="736"/>
                        </Array>
                    </mxGeometry>
                </mxCell>
                <mxCell id="BKlgi4SIrofSlWjP2YXj-97" value="Assign" style="rounded=0;whiteSpace=wrap;html=1;fontSize=24;fontFamily=Sora;fontSource=https%3A%2F%2Ffonts.googleapis.com%2Fcss%3Ffamily%3DSora;" parent="1" vertex="1">
                    <mxGeometry x="1750" y="706" width="150" height="60" as="geometry"/>
                </mxCell>
                <mxCell id="BKlgi4SIrofSlWjP2YXj-98" value="" style="endArrow=classic;html=1;rounded=0;fontSize=24;fontStyle=0;exitX=1;exitY=0.5;exitDx=0;exitDy=0;" parent="1" source="BKlgi4SIrofSlWjP2YXj-97" edge="1">
                    <mxGeometry width="50" height="50" relative="1" as="geometry">
                        <mxPoint x="3090" y="686" as="sourcePoint"/>
                        <mxPoint x="3200" y="200" as="targetPoint"/>
                        <Array as="points">
                            <mxPoint x="3200" y="736"/>
                        </Array>
                    </mxGeometry>
                </mxCell>
                <mxCell id="BKlgi4SIrofSlWjP2YXj-99" value="Assign" style="text;html=1;strokeColor=none;fillColor=none;align=center;verticalAlign=middle;whiteSpace=wrap;rounded=0;fontStyle=1;labelBackgroundColor=none;fontColor=#000000;fontFamily=Sora;fontSource=https%3A%2F%2Ffonts.googleapis.com%2Fcss%3Ffamily%3DSora;fontSize=24;" parent="1" vertex="1">
                    <mxGeometry x="3332" y="970" width="140" height="30" as="geometry"/>
                </mxCell>
                <mxCell id="BKlgi4SIrofSlWjP2YXj-100" value="" style="endArrow=classic;html=1;rounded=0;fontSize=24;fontStyle=0;exitX=0;exitY=0.5;exitDx=0;exitDy=0;" parent="1" source="BKlgi4SIrofSlWjP2YXj-38" edge="1">
                    <mxGeometry width="50" height="50" relative="1" as="geometry">
                        <mxPoint x="970" y="290" as="sourcePoint"/>
                        <mxPoint x="860" y="160" as="targetPoint"/>
                        <Array as="points">
                            <mxPoint x="860" y="240"/>
                        </Array>
                    </mxGeometry>
                </mxCell>
                <mxCell id="BKlgi4SIrofSlWjP2YXj-101" value="" style="endArrow=classic;html=1;rounded=0;fontSize=24;fontStyle=0;entryX=1;entryY=0.5;entryDx=0;entryDy=0;" parent="1" target="BKlgi4SIrofSlWjP2YXj-38" edge="1">
                    <mxGeometry width="50" height="50" relative="1" as="geometry">
                        <mxPoint x="1130" y="160" as="sourcePoint"/>
                        <mxPoint x="1060" y="260" as="targetPoint"/>
                        <Array as="points">
                            <mxPoint x="1130" y="240"/>
                        </Array>
                    </mxGeometry>
                </mxCell>
                <mxCell id="Kv_Zg9a_kmqH4UfuUk7p-1" value="" style="endArrow=classic;html=1;rounded=0;fontSize=24;fontStyle=0;entryX=0;entryY=0.5;entryDx=0;entryDy=0;" parent="1" target="BKlgi4SIrofSlWjP2YXj-26" edge="1">
                    <mxGeometry width="50" height="50" relative="1" as="geometry">
                        <mxPoint x="1100" y="690" as="sourcePoint"/>
                        <mxPoint x="1100" y="780" as="targetPoint"/>
                        <Array as="points">
                            <mxPoint x="1100" y="780"/>
                        </Array>
                    </mxGeometry>
                </mxCell>
                <mxCell id="Kv_Zg9a_kmqH4UfuUk7p-2" value="" style="endArrow=classic;html=1;rounded=0;fontSize=24;fontStyle=0;entryX=0;entryY=0.5;entryDx=0;entryDy=0;" parent="1" target="BKlgi4SIrofSlWjP2YXj-27" edge="1">
                    <mxGeometry width="50" height="50" relative="1" as="geometry">
                        <mxPoint x="1100" y="690" as="sourcePoint"/>
                        <mxPoint x="1210" y="790" as="targetPoint"/>
                        <Array as="points">
                            <mxPoint x="1100" y="880"/>
                        </Array>
                    </mxGeometry>
                </mxCell>
                <mxCell id="Kv_Zg9a_kmqH4UfuUk7p-3" value="" style="endArrow=classic;html=1;rounded=0;fontSize=24;fontStyle=0;entryX=0;entryY=0.5;entryDx=0;entryDy=0;" parent="1" target="BKlgi4SIrofSlWjP2YXj-31" edge="1">
                    <mxGeometry width="50" height="50" relative="1" as="geometry">
                        <mxPoint x="1100" y="690" as="sourcePoint"/>
                        <mxPoint x="1220" y="800" as="targetPoint"/>
                        <Array as="points">
                            <mxPoint x="1100" y="980"/>
                        </Array>
                    </mxGeometry>
                </mxCell>
                <mxCell id="Kv_Zg9a_kmqH4UfuUk7p-5" value="" style="endArrow=classic;html=1;rounded=0;fontSize=24;fontStyle=0;exitX=1;exitY=0.5;exitDx=0;exitDy=0;" parent="1" source="BKlgi4SIrofSlWjP2YXj-26" edge="1">
                    <mxGeometry width="50" height="50" relative="1" as="geometry">
                        <mxPoint x="1320" y="780.21" as="sourcePoint"/>
                        <mxPoint x="1450" y="690" as="targetPoint"/>
                        <Array as="points">
                            <mxPoint x="1380" y="780"/>
                            <mxPoint x="1380" y="690"/>
                        </Array>
                    </mxGeometry>
                </mxCell>
                <mxCell id="Kv_Zg9a_kmqH4UfuUk7p-6" value="" style="endArrow=classic;html=1;rounded=0;fontSize=24;fontStyle=0;exitX=1;exitY=0.5;exitDx=0;exitDy=0;" parent="1" source="BKlgi4SIrofSlWjP2YXj-27" edge="1">
                    <mxGeometry width="50" height="50" relative="1" as="geometry">
                        <mxPoint x="1290" y="790" as="sourcePoint"/>
                        <mxPoint x="1450" y="690" as="targetPoint"/>
                        <Array as="points">
                            <mxPoint x="1380" y="880"/>
                            <mxPoint x="1380" y="690"/>
                        </Array>
                    </mxGeometry>
                </mxCell>
                <mxCell id="Kv_Zg9a_kmqH4UfuUk7p-7" value="" style="endArrow=classic;html=1;rounded=0;fontSize=24;fontStyle=0;exitX=1;exitY=0.5;exitDx=0;exitDy=0;" parent="1" source="BKlgi4SIrofSlWjP2YXj-31" edge="1">
                    <mxGeometry width="50" height="50" relative="1" as="geometry">
                        <mxPoint x="1300" y="800" as="sourcePoint"/>
                        <mxPoint x="1450" y="690" as="targetPoint"/>
                        <Array as="points">
                            <mxPoint x="1380" y="980"/>
                            <mxPoint x="1380" y="690"/>
                        </Array>
                    </mxGeometry>
                </mxCell>
                <mxCell id="HJXj20KYBScDrpwhCcY_-1" value="var" style="ellipse;whiteSpace=wrap;html=1;fontSize=24;fontStyle=1" parent="1" vertex="1">
                    <mxGeometry x="1740" y="810" width="140" height="80" as="geometry"/>
                </mxCell>
                <mxCell id="HJXj20KYBScDrpwhCcY_-2" value="" style="endArrow=classic;html=1;rounded=0;fontSize=24;fontStyle=0;" parent="1" edge="1" target="HJXj20KYBScDrpwhCcY_-1">
                    <mxGeometry width="50" height="50" relative="1" as="geometry">
                        <mxPoint x="1690" y="220" as="sourcePoint"/>
                        <mxPoint x="1750" y="746" as="targetPoint"/>
                        <Array as="points">
                            <mxPoint x="1690" y="850"/>
                        </Array>
                    </mxGeometry>
                </mxCell>
                <mxCell id="2" value="Identifier" style="ellipse;whiteSpace=wrap;html=1;fontSize=24;fontStyle=1" vertex="1" parent="1">
                    <mxGeometry x="1960" y="810" width="140" height="80" as="geometry"/>
                </mxCell>
                <mxCell id="3" value="int" style="ellipse;whiteSpace=wrap;html=1;fontSize=24;fontStyle=1" vertex="1" parent="1">
                    <mxGeometry x="2180" y="810" width="140" height="80" as="geometry"/>
                </mxCell>
                <mxCell id="4" value="" style="endArrow=classic;html=1;rounded=0;fontSize=24;fontStyle=0;entryX=0;entryY=0.5;entryDx=0;entryDy=0;" edge="1" parent="1" target="2">
                    <mxGeometry width="50" height="50" relative="1" as="geometry">
                        <mxPoint x="1880" y="850" as="sourcePoint"/>
                        <mxPoint x="1945" y="849.6" as="targetPoint"/>
                        <Array as="points"/>
                    </mxGeometry>
                </mxCell>
                <mxCell id="5" value="" style="endArrow=classic;html=1;rounded=0;fontSize=24;fontStyle=0;exitX=1;exitY=0.5;exitDx=0;exitDy=0;entryX=0;entryY=0.5;entryDx=0;entryDy=0;" edge="1" parent="1" source="2" target="3">
                    <mxGeometry width="50" height="50" relative="1" as="geometry">
                        <mxPoint x="1890" y="860" as="sourcePoint"/>
                        <mxPoint x="1955" y="860" as="targetPoint"/>
                        <Array as="points"/>
                    </mxGeometry>
                </mxCell>
                <mxCell id="12" value="string" style="ellipse;whiteSpace=wrap;html=1;fontSize=24;fontStyle=1" vertex="1" parent="1">
                    <mxGeometry x="2180" y="910" width="140" height="80" as="geometry"/>
                </mxCell>
                <mxCell id="13" value="" style="endArrow=classic;html=1;rounded=0;fontSize=24;fontStyle=0;entryX=0;entryY=0.5;entryDx=0;entryDy=0;" edge="1" parent="1" target="12">
                    <mxGeometry width="50" height="50" relative="1" as="geometry">
                        <mxPoint x="2120" y="850" as="sourcePoint"/>
                        <mxPoint x="1955" y="960" as="targetPoint"/>
                        <Array as="points">
                            <mxPoint x="2120" y="950"/>
                        </Array>
                    </mxGeometry>
                </mxCell>
                <mxCell id="15" value="" style="endArrow=classic;html=1;rounded=0;fontSize=24;fontStyle=0;exitX=1;exitY=0.5;exitDx=0;exitDy=0;" edge="1" parent="1" source="12">
                    <mxGeometry width="50" height="50" relative="1" as="geometry">
                        <mxPoint x="2130" y="860" as="sourcePoint"/>
                        <mxPoint x="2380" y="850" as="targetPoint"/>
                        <Array as="points">
                            <mxPoint x="2380" y="950"/>
                        </Array>
                    </mxGeometry>
                </mxCell>
                <mxCell id="16" value="" style="endArrow=classic;html=1;rounded=0;fontSize=24;fontStyle=0;exitX=1;exitY=0.5;exitDx=0;exitDy=0;" edge="1" parent="1" source="3">
                    <mxGeometry width="50" height="50" relative="1" as="geometry">
                        <mxPoint x="2340" y="830" as="sourcePoint"/>
                        <mxPoint x="3270" y="200" as="targetPoint"/>
                        <Array as="points">
                            <mxPoint x="3270" y="850"/>
                        </Array>
                    </mxGeometry>
                </mxCell>
                <mxCell id="17" value="" style="endArrow=classic;html=1;rounded=0;fontSize=24;fontStyle=0;entryX=0;entryY=0.5;entryDx=0;entryDy=0;" edge="1" parent="1" target="18">
                    <mxGeometry width="50" height="50" relative="1" as="geometry">
                        <mxPoint x="2490" y="850" as="sourcePoint"/>
                        <mxPoint x="2550" y="950" as="targetPoint"/>
                        <Array as="points">
                            <mxPoint x="2490" y="950"/>
                        </Array>
                    </mxGeometry>
                </mxCell>
                <mxCell id="18" value="=" style="ellipse;whiteSpace=wrap;html=1;fontSize=24;fontStyle=1" vertex="1" parent="1">
                    <mxGeometry x="2550" y="910" width="80" height="80" as="geometry"/>
                </mxCell>
                <mxCell id="19" value="" style="endArrow=classic;html=1;rounded=0;fontSize=24;fontStyle=0;entryX=0;entryY=0.5;entryDx=0;entryDy=0;exitX=1;exitY=0.5;exitDx=0;exitDy=0;" edge="1" parent="1" target="20" source="18">
                    <mxGeometry width="50" height="50" relative="1" as="geometry">
                        <mxPoint x="2660" y="950" as="sourcePoint"/>
                        <mxPoint x="2720" y="950" as="targetPoint"/>
                        <Array as="points"/>
                    </mxGeometry>
                </mxCell>
                <mxCell id="20" value="Boolean Expression" style="rounded=0;whiteSpace=wrap;html=1;fontSize=24;fontFamily=Sora;fontSource=https%3A%2F%2Ffonts.googleapis.com%2Fcss%3Ffamily%3DSora;" vertex="1" parent="1">
                    <mxGeometry x="2725" y="920" width="150" height="60" as="geometry"/>
                </mxCell>
                <mxCell id="21" value="" style="endArrow=classic;html=1;rounded=0;fontSize=24;fontStyle=0;exitX=1;exitY=0.5;exitDx=0;exitDy=0;" edge="1" parent="1" source="20">
                    <mxGeometry width="50" height="50" relative="1" as="geometry">
                        <mxPoint x="2880" y="950" as="sourcePoint"/>
                        <mxPoint x="2940" y="850" as="targetPoint"/>
                        <Array as="points">
                            <mxPoint x="2940" y="950"/>
                        </Array>
                    </mxGeometry>
                </mxCell>
                <mxCell id="22" value="" style="endArrow=classic;html=1;rounded=0;fontSize=24;fontStyle=0;entryX=1;entryY=0.5;entryDx=0;entryDy=0;" edge="1" parent="1" target="23">
                    <mxGeometry width="50" height="50" relative="1" as="geometry">
                        <mxPoint x="400" y="460" as="sourcePoint"/>
                        <mxPoint x="330" y="760" as="targetPoint"/>
                        <Array as="points">
                            <mxPoint x="400" y="756"/>
                        </Array>
                    </mxGeometry>
                </mxCell>
                <mxCell id="23" value="." style="ellipse;whiteSpace=wrap;html=1;fontSize=24;fontStyle=1" vertex="1" parent="1">
                    <mxGeometry x="230" y="716" width="80" height="80" as="geometry"/>
                </mxCell>
                <mxCell id="24" value="" style="endArrow=none;html=1;rounded=0;fontSize=24;fontStyle=0;exitX=0;exitY=0.5;exitDx=0;exitDy=0;endFill=0;" edge="1" parent="1" source="23">
                    <mxGeometry width="50" height="50" relative="1" as="geometry">
                        <mxPoint x="239.9999999999999" y="665.9999999999999" as="sourcePoint"/>
                        <mxPoint x="120" y="470" as="targetPoint"/>
                        <Array as="points">
                            <mxPoint x="120" y="760"/>
                        </Array>
                    </mxGeometry>
                </mxCell>
                <mxCell id="25" value="" style="endArrow=classic;html=1;rounded=0;fontSize=24;fontStyle=0;exitX=1;exitY=0.5;exitDx=0;exitDy=0;entryX=0;entryY=0.5;entryDx=0;entryDy=0;" edge="1" parent="1" source="BKlgi4SIrofSlWjP2YXj-65" target="BKlgi4SIrofSlWjP2YXj-67">
                    <mxGeometry width="50" height="50" relative="1" as="geometry">
                        <mxPoint x="4245.000000000058" y="940" as="sourcePoint"/>
                        <mxPoint x="4310" y="940" as="targetPoint"/>
                        <Array as="points"/>
                    </mxGeometry>
                </mxCell>
                <mxCell id="26" value="" style="endArrow=classic;html=1;rounded=0;fontSize=24;fontStyle=0;entryX=0;entryY=0.5;entryDx=0;entryDy=0;" edge="1" parent="1" target="27">
                    <mxGeometry width="50" height="50" relative="1" as="geometry">
                        <mxPoint x="3920" y="270" as="sourcePoint"/>
                        <mxPoint x="3980" y="450" as="targetPoint"/>
                        <Array as="points">
                            <mxPoint x="3920" y="446"/>
                        </Array>
                    </mxGeometry>
                </mxCell>
                <mxCell id="27" value="Identifier" style="ellipse;whiteSpace=wrap;html=1;fontSize=24;fontStyle=1" vertex="1" parent="1">
                    <mxGeometry x="3990" y="406" width="140" height="80" as="geometry"/>
                </mxCell>
                <mxCell id="28" value="" style="endArrow=none;html=1;rounded=0;fontSize=24;fontStyle=0;exitX=1;exitY=0.5;exitDx=0;exitDy=0;endFill=0;" edge="1" parent="1" source="27">
                    <mxGeometry width="50" height="50" relative="1" as="geometry">
                        <mxPoint x="4140" y="366" as="sourcePoint"/>
                        <mxPoint x="4400" y="270" as="targetPoint"/>
                        <Array as="points">
                            <mxPoint x="4400" y="446"/>
                        </Array>
                    </mxGeometry>
                </mxCell>
            </root>
        </mxGraphModel>
    </diagram>
</mxfile>